 <svg width="492" height="492" viewBox="0 0 492 492" fill="none" xmlns="http://www.w3.org/2000/svg">
<g clip-path="url(#clip0)">
<path d="M0 0V491.52H491.52V0H0ZM471.04 471.04H20.48V102.4H471.04V471.04ZM471.04 81.92H20.48V20.48H471.04V81.92Z" fill="#B7FDFE"/>
<path d="M450.56 40.96H430.08V61.44H450.56V40.96Z" fill="#B7FDFE"/>
<path d="M409.6 40.96H389.12V61.44H409.6V40.96Z" fill="#B7FDFE"/>
<path d="M368.64 40.96H348.16V61.44H368.64V40.96Z" fill="#B7FDFE"/>
<path d="M296.96 40.96H51.2V61.44H296.96V40.96Z" fill="#B7FDFE"/>
<path d="M334.92 197.56L320.44 212.04L384.88 276.48L320.44 340.92L334.92 355.4L413.84 276.48L334.92 197.56Z" fill="#B7FDFE"/>
<path d="M171.08 212.04L156.6 197.56L77.68 276.48L156.6 355.4L171.08 340.92L106.64 276.48L171.08 212.04Z" fill="#B7FDFE"/>
<path d="M277.236 170.184L185.131 395.505L204.09 403.255L296.195 177.934L277.236 170.184Z" fill="#B7FDFE"/>
</g>
<defs>
<clipPath id="clip0">
<rect width="491.52" height="491.52" fill="white"/>
</clipPath>
</defs>
</svg>
